<?xml version="1.0" standalone="no"?>
<!DOCTYPE svg PUBLIC "-//W3C//DTD SVG 20010904//EN"
 "http://www.w3.org/TR/2001/REC-SVG-20010904/DTD/svg10.dtd">
<svg version="1.0" xmlns="http://www.w3.org/2000/svg"
 width="270.000000pt" height="270.000000pt" viewBox="0 0 270.000000 270.000000"
 preserveAspectRatio="xMidYMid meet">
<metadata>
Created by potrace 1.11, written by Peter Selinger 2001-2013
</metadata>
<g transform="translate(0.000000,270.000000) scale(0.100000,-0.100000)"
fill="#000000" stroke="none">
<path d="M1182 2640 c-301 -43 -565 -179 -775 -400 -171 -180 -278 -385 -333
-641 -26 -118 -26 -380 0 -498 59 -273 168 -474 360 -666 195 -194 395 -302
667 -361 118 -26 380 -26 498 0 272 59 472 167 667 361 192 192 301 393 360
666 14 62 18 127 18 249 0 122 -4 187 -18 249 -59 273 -167 474 -360 667 -190
189 -384 296 -646 355 -98 22 -340 33 -438 19z m359 -384 c172 -37 346 -134
470 -263 109 -113 147 -171 199 -300 52 -131 70 -214 70 -336 0 -155 -50 -344
-122 -464 -116 -193 -322 -351 -558 -429 -79 -26 -96 -28 -250 -29 -145 0
-174 3 -240 24 -227 70 -389 174 -506 324 -66 84 -147 246 -169 337 -22 92
-30 280 -16 378 42 285 220 538 471 666 94 48 130 61 240 87 95 22 317 25 411
5z"/>
<path d="M1181 2075 c-113 -26 -258 -106 -360 -199 -52 -49 -133 -167 -167
-243 -130 -294 -9 -680 274 -871 223 -152 474 -185 687 -91 223 98 380 282
451 529 23 82 23 229 0 325 -62 259 -270 468 -534 536 -103 26 -268 33 -351
14z m-17 -396 c64 -50 83 -151 41 -215 -23 -35 -90 -64 -152 -64 -42 0 -58 5
-84 27 -79 67 -79 179 1 247 27 22 41 26 99 26 54 0 74 -4 95 -21z m662 4 c37
-24 64 -84 64 -142 0 -86 -67 -141 -173 -141 -85 0 -137 57 -137 150 0 67 14
97 59 127 43 29 147 32 187 6z m-466 -553 c375 -28 340 -19 340 -87 0 -104
-84 -222 -195 -274 -53 -26 -71 -29 -155 -29 -114 0 -161 18 -234 88 -70 68
-106 148 -106 239 0 48 4 73 13 76 21 9 55 8 337 -13z"/>
</g>
</svg>
